<?xml version="1.0" encoding="UTF-8" standalone="no"?>
<svg width="200" height="200" viewBox="0 0 200 200" fill="none" xmlns="http://www.w3.org/2000/svg">
  <rect width="200" height="200" rx="20" fill="#5C4EE5"/>
  <path d="M100 40C77.909 40 60 57.909 60 80V120C60 142.091 77.909 160 100 160C122.091 160 140 142.091 140 120V80C140 57.909 122.091 40 100 40Z" fill="white"/>
  <path d="M100 60C88.954 60 80 68.954 80 80V120C80 131.046 88.954 140 100 140C111.046 140 120 131.046 120 120V80C120 68.954 111.046 60 100 60Z" fill="#5C4EE5"/>
  <path d="M100 80C94.477 80 90 84.477 90 90V110C90 115.523 94.477 120 100 120C105.523 120 110 115.523 110 110V90C110 84.477 105.523 80 100 80Z" fill="white"/>
</svg>