<?xml version="1.0" encoding="UTF-8" standalone="no"?>
<svg width="200" height="200" viewBox="0 0 200 200" fill="none" xmlns="http://www.w3.org/2000/svg">
  <rect width="200" height="200" rx="20" fill="#00A9E5"/>
  <path d="M160 100C160 133.137 133.137 160 100 160C66.8629 160 40 133.137 40 100C40 66.8629 66.8629 40 100 40C133.137 40 160 66.8629 160 100Z" fill="white"/>
  <path d="M140 100C140 122.091 122.091 140 100 140C77.9086 140 60 122.091 60 100C60 77.9086 77.9086 60 100 60C122.091 60 140 77.9086 140 100Z" fill="#00A9E5"/>
  <path d="M120 100C120 111.046 111.046 120 100 120C88.9543 120 80 111.046 80 100C80 88.9543 88.9543 80 100 80C111.046 80 120 88.9543 120 100Z" fill="white"/>
  <path d="M50 50L70 70M150 50L130 70M50 150L70 130M150 150L130 130" stroke="#00A9E5" stroke-width="8" stroke-linecap="round"/>
</svg>